<svg xmlns="http://www.w3.org/2000/svg" xmlns:xlink="http://www.w3.org/1999/xlink" width="500" zoomAndPan="magnify" viewBox="0 0 375 74.999997" height="100" preserveAspectRatio="xMidYMid meet" version="1.0"><defs><g/></defs><g fill="#ff1616" fill-opacity="1"><g transform="translate(5.250007, 57.744821)"><g><path d="M 32.203125 0 L 30 -8.359375 L 15.5 -8.359375 L 13.25 0 L 0 0 L 14.5625 -44.8125 L 30.640625 -44.8125 L 45.390625 0 Z M 27.5 -18.25 L 25.578125 -25.578125 C 25.128906 -27.203125 24.582031 -29.304688 23.9375 -31.890625 C 23.300781 -34.484375 22.882812 -36.335938 22.6875 -37.453125 C 22.5 -36.410156 22.132812 -34.695312 21.59375 -32.3125 C 21.050781 -29.9375 19.859375 -25.25 18.015625 -18.25 Z M 27.5 -18.25 "/></g></g><g transform="translate(50.643921, 57.744821)"><g><path d="M 30.828125 -10.625 C 30.828125 -6.914062 29.566406 -4.113281 27.046875 -2.21875 C 24.523438 -0.332031 20.898438 0.609375 16.171875 0.609375 C 13.609375 0.609375 11.378906 0.46875 9.484375 0.1875 C 7.597656 -0.0820312 5.664062 -0.582031 3.6875 -1.3125 L 3.6875 -10.859375 C 5.539062 -10.046875 7.570312 -9.375 9.78125 -8.84375 C 11.988281 -8.320312 13.957031 -8.0625 15.6875 -8.0625 C 18.269531 -8.0625 19.5625 -8.648438 19.5625 -9.828125 C 19.5625 -10.441406 19.203125 -10.984375 18.484375 -11.453125 C 17.765625 -11.929688 15.660156 -12.863281 12.171875 -14.25 C 9.003906 -15.550781 6.785156 -17.03125 5.515625 -18.6875 C 4.253906 -20.351562 3.625 -22.457031 3.625 -25 C 3.625 -28.21875 4.863281 -30.722656 7.34375 -32.515625 C 9.832031 -34.304688 13.347656 -35.203125 17.890625 -35.203125 C 20.171875 -35.203125 22.3125 -34.953125 24.3125 -34.453125 C 26.3125 -33.953125 28.394531 -33.222656 30.5625 -32.265625 L 27.3125 -24.578125 C 25.726562 -25.285156 24.050781 -25.890625 22.28125 -26.390625 C 20.507812 -26.890625 19.066406 -27.140625 17.953125 -27.140625 C 15.992188 -27.140625 15.015625 -26.660156 15.015625 -25.703125 C 15.015625 -25.109375 15.351562 -24.601562 16.03125 -24.1875 C 16.71875 -23.769531 18.691406 -22.921875 21.953125 -21.640625 C 24.367188 -20.640625 26.171875 -19.660156 27.359375 -18.703125 C 28.554688 -17.753906 29.429688 -16.632812 29.984375 -15.34375 C 30.546875 -14.050781 30.828125 -12.476562 30.828125 -10.625 Z M 30.828125 -10.625 "/></g></g><g transform="translate(83.9796, 57.744821)"><g><path d="M 25.890625 0 L 25.890625 -18.859375 C 25.890625 -23.503906 24.515625 -25.828125 21.765625 -25.828125 C 19.804688 -25.828125 18.363281 -25.003906 17.4375 -23.359375 C 16.519531 -21.722656 16.0625 -19.003906 16.0625 -15.203125 L 16.0625 0 L 4.125 0 L 4.125 -47.5 L 16.0625 -47.5 L 16.0625 -40.75 C 16.0625 -37.695312 15.894531 -34.21875 15.5625 -30.3125 L 16.125 -30.3125 C 17.257812 -32.101562 18.609375 -33.363281 20.171875 -34.09375 C 21.742188 -34.832031 23.566406 -35.203125 25.640625 -35.203125 C 29.503906 -35.203125 32.507812 -34.085938 34.65625 -31.859375 C 36.800781 -29.628906 37.875 -26.507812 37.875 -22.5 L 37.875 0 Z M 25.890625 0 "/></g></g><g transform="translate(125.862888, 57.744821)"><g><path d="M 16.125 0 L 4.1875 0 L 4.1875 -34.578125 L 16.125 -34.578125 Z M 3.875 -43.1875 C 3.875 -44.976562 4.375 -46.3125 5.375 -47.1875 C 6.375 -48.0625 7.984375 -48.5 10.203125 -48.5 C 12.410156 -48.5 14.023438 -48.050781 15.046875 -47.15625 C 16.066406 -46.257812 16.578125 -44.9375 16.578125 -43.1875 C 16.578125 -39.6875 14.453125 -37.9375 10.203125 -37.9375 C 5.984375 -37.9375 3.875 -39.6875 3.875 -43.1875 Z M 3.875 -43.1875 "/></g></g><g transform="translate(146.193989, 57.744821)"><g><path d="M 15.6875 -19.4375 C 17.132812 -21.738281 18.367188 -23.53125 19.390625 -24.8125 L 27.140625 -34.578125 L 40.453125 -34.578125 L 28.453125 -19.875 L 41.203125 0 L 27.5625 0 L 20 -12.390625 L 16.125 -9.4375 L 16.125 0 L 4.125 0 L 4.125 -47.5 L 16.125 -47.5 L 16.125 -28.8125 C 16.125 -25.613281 15.898438 -22.488281 15.453125 -19.4375 Z M 15.6875 -19.4375 "/></g></g></g><g fill="#ff1616" fill-opacity="1"><g transform="translate(187.389688, 57.744821)"><g/></g></g><g fill="#000000" fill-opacity="1"><g transform="translate(198.867178, 57.744821)"><g><path d="M 31.3125 0 L 4.828125 0 L 4.828125 -44.625 L 31.3125 -44.625 L 31.3125 -34.953125 L 16.875 -34.953125 L 16.875 -27.9375 L 30.25 -27.9375 L 30.25 -18.25 L 16.875 -18.25 L 16.875 -9.828125 L 31.3125 -9.828125 Z M 31.3125 0 "/></g></g><g transform="translate(233.179727, 57.744821)"><g><path d="M 15.015625 0.609375 C 11.148438 0.609375 8.117188 -0.972656 5.921875 -4.140625 C 3.722656 -7.316406 2.625 -11.6875 2.625 -17.25 C 2.625 -22.863281 3.75 -27.257812 6 -30.4375 C 8.25 -33.613281 11.316406 -35.203125 15.203125 -35.203125 C 19.367188 -35.203125 22.515625 -33.570312 24.640625 -30.3125 L 24.875 -30.3125 L 25.765625 -34.578125 L 36.078125 -34.578125 L 36.078125 15.015625 L 24.140625 15.015625 L 24.140625 0.703125 C 24.140625 0.015625 24.265625 -1.671875 24.515625 -4.359375 L 24.140625 -4.359375 C 22.191406 -1.046875 19.148438 0.609375 15.015625 0.609375 Z M 19.875 -8.640625 C 21.6875 -8.640625 23.003906 -9.195312 23.828125 -10.3125 C 24.648438 -11.4375 25.0625 -13.332031 25.0625 -16 L 25.0625 -17.4375 C 25.0625 -20.488281 24.644531 -22.671875 23.8125 -23.984375 C 22.976562 -25.296875 21.601562 -25.953125 19.6875 -25.953125 C 16.394531 -25.953125 14.75 -22.988281 14.75 -17.0625 C 14.75 -14.050781 15.164062 -11.894531 16 -10.59375 C 16.832031 -9.289062 18.125 -8.640625 19.875 -8.640625 Z M 19.875 -8.640625 "/></g></g><g transform="translate(273.384021, 57.744821)"><g><path d="M 25.25 -35.203125 C 29.007812 -35.203125 31.992188 -33.625 34.203125 -30.46875 C 36.410156 -27.3125 37.515625 -22.945312 37.515625 -17.375 C 37.515625 -11.75 36.398438 -7.34375 34.171875 -4.15625 C 31.941406 -0.976562 28.84375 0.609375 24.875 0.609375 C 23.59375 0.609375 22.453125 0.46875 21.453125 0.1875 C 20.460938 -0.0820312 19.570312 -0.457031 18.78125 -0.9375 C 18 -1.425781 17.09375 -2.242188 16.0625 -3.390625 L 15.328125 -3.390625 L 13.4375 0 L 4.125 0 L 4.125 -47.5 L 16.0625 -47.5 L 16.0625 -36.75 C 16.0625 -35.46875 15.914062 -33.257812 15.625 -30.125 L 16.0625 -30.125 C 17.21875 -31.914062 18.550781 -33.207031 20.0625 -34 C 21.582031 -34.800781 23.3125 -35.203125 25.25 -35.203125 Z M 20.875 -25.828125 C 19.207031 -25.828125 17.988281 -25.242188 17.21875 -24.078125 C 16.445312 -22.921875 16.0625 -21.101562 16.0625 -18.625 L 16.0625 -16.9375 C 16.0625 -14.113281 16.445312 -12.082031 17.21875 -10.84375 C 17.988281 -9.613281 19.25 -9 21 -9 C 22.40625 -9 23.484375 -9.71875 24.234375 -11.15625 C 24.984375 -12.59375 25.359375 -14.703125 25.359375 -17.484375 C 25.359375 -23.046875 23.863281 -25.828125 20.875 -25.828125 Z M 20.875 -25.828125 "/></g></g><g transform="translate(313.588314, 57.744821)"><g><path d="M 26.671875 0 L 24.390625 -4.578125 L 24.140625 -4.578125 C 22.535156 -2.585938 20.898438 -1.222656 19.234375 -0.484375 C 17.566406 0.242188 15.410156 0.609375 12.765625 0.609375 C 9.503906 0.609375 6.9375 -0.363281 5.0625 -2.3125 C 3.195312 -4.269531 2.265625 -7.019531 2.265625 -10.5625 C 2.265625 -14.25 3.546875 -16.988281 6.109375 -18.78125 C 8.671875 -20.582031 12.382812 -21.597656 17.25 -21.828125 L 23.015625 -22.015625 L 23.015625 -22.5 C 23.015625 -25.34375 21.609375 -26.765625 18.796875 -26.765625 C 16.273438 -26.765625 13.070312 -25.910156 9.1875 -24.203125 L 5.734375 -32.078125 C 9.765625 -34.160156 14.851562 -35.203125 21 -35.203125 C 25.4375 -35.203125 28.867188 -34.101562 31.296875 -31.90625 C 33.734375 -29.707031 34.953125 -26.632812 34.953125 -22.6875 L 34.953125 0 Z M 17.828125 -7.8125 C 19.273438 -7.8125 20.507812 -8.269531 21.53125 -9.1875 C 22.5625 -10.101562 23.078125 -11.296875 23.078125 -12.765625 L 23.078125 -15.453125 L 20.328125 -15.328125 C 16.398438 -15.179688 14.4375 -13.734375 14.4375 -10.984375 C 14.4375 -8.867188 15.566406 -7.8125 17.828125 -7.8125 Z M 17.828125 -7.8125 "/></g></g><g transform="translate(352.540994, 57.744821)"><g><path d="M 16.0625 0 L 4.125 0 L 4.125 -47.5 L 16.0625 -47.5 Z M 16.0625 0 "/></g></g></g></svg>